%TF.GenerationSoftware,KiCad,Pcbnew,5.1.7-a382d34a8~87~ubuntu20.04.1*%
%TF.CreationDate,2020-11-14T14:33:39-08:00*%
%TF.ProjectId,LedBoard,4c656442-6f61-4726-942e-6b696361645f,rev?*%
%TF.SameCoordinates,Original*%
%TF.FileFunction,Legend,Top*%
%TF.FilePolarity,Positive*%
%FSLAX46Y46*%
G04 Gerber Fmt 4.6, Leading zero omitted, Abs format (unit mm)*
G04 Created by KiCad (PCBNEW 5.1.7-a382d34a8~87~ubuntu20.04.1) date 2020-11-14 14:33:39*
%MOMM*%
%LPD*%
G01*
G04 APERTURE LIST*
%ADD10C,0.120000*%
%ADD11C,0.150000*%
G04 APERTURE END LIST*
D10*
%TO.C,J1*%
X-31060000Y-84670000D02*
X-31060000Y-105110000D01*
X-31060000Y-105110000D02*
X-28400000Y-105110000D01*
X-28400000Y-105110000D02*
X-28400000Y-84670000D01*
X-28400000Y-84670000D02*
X-31060000Y-84670000D01*
X-28400000Y-85620000D02*
X-22400000Y-85620000D01*
X-22400000Y-85620000D02*
X-22400000Y-86380000D01*
X-22400000Y-86380000D02*
X-28400000Y-86380000D01*
X-28400000Y-85680000D02*
X-22400000Y-85680000D01*
X-28400000Y-85800000D02*
X-22400000Y-85800000D01*
X-28400000Y-85920000D02*
X-22400000Y-85920000D01*
X-28400000Y-86040000D02*
X-22400000Y-86040000D01*
X-28400000Y-86160000D02*
X-22400000Y-86160000D01*
X-28400000Y-86280000D02*
X-22400000Y-86280000D01*
X-31390000Y-85620000D02*
X-31060000Y-85620000D01*
X-31390000Y-86380000D02*
X-31060000Y-86380000D01*
X-31060000Y-87270000D02*
X-28400000Y-87270000D01*
X-28400000Y-88160000D02*
X-22400000Y-88160000D01*
X-22400000Y-88160000D02*
X-22400000Y-88920000D01*
X-22400000Y-88920000D02*
X-28400000Y-88920000D01*
X-31457071Y-88160000D02*
X-31060000Y-88160000D01*
X-31457071Y-88920000D02*
X-31060000Y-88920000D01*
X-31060000Y-89810000D02*
X-28400000Y-89810000D01*
X-28400000Y-90700000D02*
X-22400000Y-90700000D01*
X-22400000Y-90700000D02*
X-22400000Y-91460000D01*
X-22400000Y-91460000D02*
X-28400000Y-91460000D01*
X-31457071Y-90700000D02*
X-31060000Y-90700000D01*
X-31457071Y-91460000D02*
X-31060000Y-91460000D01*
X-31060000Y-92350000D02*
X-28400000Y-92350000D01*
X-28400000Y-93240000D02*
X-22400000Y-93240000D01*
X-22400000Y-93240000D02*
X-22400000Y-94000000D01*
X-22400000Y-94000000D02*
X-28400000Y-94000000D01*
X-31457071Y-93240000D02*
X-31060000Y-93240000D01*
X-31457071Y-94000000D02*
X-31060000Y-94000000D01*
X-31060000Y-94890000D02*
X-28400000Y-94890000D01*
X-28400000Y-95780000D02*
X-22400000Y-95780000D01*
X-22400000Y-95780000D02*
X-22400000Y-96540000D01*
X-22400000Y-96540000D02*
X-28400000Y-96540000D01*
X-31457071Y-95780000D02*
X-31060000Y-95780000D01*
X-31457071Y-96540000D02*
X-31060000Y-96540000D01*
X-31060000Y-97430000D02*
X-28400000Y-97430000D01*
X-28400000Y-98320000D02*
X-22400000Y-98320000D01*
X-22400000Y-98320000D02*
X-22400000Y-99080000D01*
X-22400000Y-99080000D02*
X-28400000Y-99080000D01*
X-31457071Y-98320000D02*
X-31060000Y-98320000D01*
X-31457071Y-99080000D02*
X-31060000Y-99080000D01*
X-31060000Y-99970000D02*
X-28400000Y-99970000D01*
X-28400000Y-100860000D02*
X-22400000Y-100860000D01*
X-22400000Y-100860000D02*
X-22400000Y-101620000D01*
X-22400000Y-101620000D02*
X-28400000Y-101620000D01*
X-31457071Y-100860000D02*
X-31060000Y-100860000D01*
X-31457071Y-101620000D02*
X-31060000Y-101620000D01*
X-31060000Y-102510000D02*
X-28400000Y-102510000D01*
X-28400000Y-103400000D02*
X-22400000Y-103400000D01*
X-22400000Y-103400000D02*
X-22400000Y-104160000D01*
X-22400000Y-104160000D02*
X-28400000Y-104160000D01*
X-31457071Y-103400000D02*
X-31060000Y-103400000D01*
X-31457071Y-104160000D02*
X-31060000Y-104160000D01*
X-33770000Y-86000000D02*
X-33770000Y-84730000D01*
X-33770000Y-84730000D02*
X-32500000Y-84730000D01*
%TO.C,J2*%
X342440000Y-84670000D02*
X342440000Y-105110000D01*
X342440000Y-105110000D02*
X345100000Y-105110000D01*
X345100000Y-105110000D02*
X345100000Y-84670000D01*
X345100000Y-84670000D02*
X342440000Y-84670000D01*
X345100000Y-85620000D02*
X351100000Y-85620000D01*
X351100000Y-85620000D02*
X351100000Y-86380000D01*
X351100000Y-86380000D02*
X345100000Y-86380000D01*
X345100000Y-85680000D02*
X351100000Y-85680000D01*
X345100000Y-85800000D02*
X351100000Y-85800000D01*
X345100000Y-85920000D02*
X351100000Y-85920000D01*
X345100000Y-86040000D02*
X351100000Y-86040000D01*
X345100000Y-86160000D02*
X351100000Y-86160000D01*
X345100000Y-86280000D02*
X351100000Y-86280000D01*
X342110000Y-85620000D02*
X342440000Y-85620000D01*
X342110000Y-86380000D02*
X342440000Y-86380000D01*
X342440000Y-87270000D02*
X345100000Y-87270000D01*
X345100000Y-88160000D02*
X351100000Y-88160000D01*
X351100000Y-88160000D02*
X351100000Y-88920000D01*
X351100000Y-88920000D02*
X345100000Y-88920000D01*
X342042929Y-88160000D02*
X342440000Y-88160000D01*
X342042929Y-88920000D02*
X342440000Y-88920000D01*
X342440000Y-89810000D02*
X345100000Y-89810000D01*
X345100000Y-90700000D02*
X351100000Y-90700000D01*
X351100000Y-90700000D02*
X351100000Y-91460000D01*
X351100000Y-91460000D02*
X345100000Y-91460000D01*
X342042929Y-90700000D02*
X342440000Y-90700000D01*
X342042929Y-91460000D02*
X342440000Y-91460000D01*
X342440000Y-92350000D02*
X345100000Y-92350000D01*
X345100000Y-93240000D02*
X351100000Y-93240000D01*
X351100000Y-93240000D02*
X351100000Y-94000000D01*
X351100000Y-94000000D02*
X345100000Y-94000000D01*
X342042929Y-93240000D02*
X342440000Y-93240000D01*
X342042929Y-94000000D02*
X342440000Y-94000000D01*
X342440000Y-94890000D02*
X345100000Y-94890000D01*
X345100000Y-95780000D02*
X351100000Y-95780000D01*
X351100000Y-95780000D02*
X351100000Y-96540000D01*
X351100000Y-96540000D02*
X345100000Y-96540000D01*
X342042929Y-95780000D02*
X342440000Y-95780000D01*
X342042929Y-96540000D02*
X342440000Y-96540000D01*
X342440000Y-97430000D02*
X345100000Y-97430000D01*
X345100000Y-98320000D02*
X351100000Y-98320000D01*
X351100000Y-98320000D02*
X351100000Y-99080000D01*
X351100000Y-99080000D02*
X345100000Y-99080000D01*
X342042929Y-98320000D02*
X342440000Y-98320000D01*
X342042929Y-99080000D02*
X342440000Y-99080000D01*
X342440000Y-99970000D02*
X345100000Y-99970000D01*
X345100000Y-100860000D02*
X351100000Y-100860000D01*
X351100000Y-100860000D02*
X351100000Y-101620000D01*
X351100000Y-101620000D02*
X345100000Y-101620000D01*
X342042929Y-100860000D02*
X342440000Y-100860000D01*
X342042929Y-101620000D02*
X342440000Y-101620000D01*
X342440000Y-102510000D02*
X345100000Y-102510000D01*
X345100000Y-103400000D02*
X351100000Y-103400000D01*
X351100000Y-103400000D02*
X351100000Y-104160000D01*
X351100000Y-104160000D02*
X345100000Y-104160000D01*
X342042929Y-103400000D02*
X342440000Y-103400000D01*
X342042929Y-104160000D02*
X342440000Y-104160000D01*
X339730000Y-86000000D02*
X339730000Y-84730000D01*
X339730000Y-84730000D02*
X341000000Y-84730000D01*
%TO.C,D3*%
D11*
X-3238095Y-84952380D02*
X-3238095Y-83952380D01*
X-3000000Y-83952380D01*
X-2857142Y-84000000D01*
X-2761904Y-84095238D01*
X-2714285Y-84190476D01*
X-2666666Y-84380952D01*
X-2666666Y-84523809D01*
X-2714285Y-84714285D01*
X-2761904Y-84809523D01*
X-2857142Y-84904761D01*
X-3000000Y-84952380D01*
X-3238095Y-84952380D01*
X-2333333Y-83952380D02*
X-1714285Y-83952380D01*
X-2047619Y-84333333D01*
X-1904761Y-84333333D01*
X-1809523Y-84380952D01*
X-1761904Y-84428571D01*
X-1714285Y-84523809D01*
X-1714285Y-84761904D01*
X-1761904Y-84857142D01*
X-1809523Y-84904761D01*
X-1904761Y-84952380D01*
X-2190476Y-84952380D01*
X-2285714Y-84904761D01*
X-2333333Y-84857142D01*
%TO.C,D1*%
X-25738095Y-84952380D02*
X-25738095Y-83952380D01*
X-25500000Y-83952380D01*
X-25357142Y-84000000D01*
X-25261904Y-84095238D01*
X-25214285Y-84190476D01*
X-25166666Y-84380952D01*
X-25166666Y-84523809D01*
X-25214285Y-84714285D01*
X-25261904Y-84809523D01*
X-25357142Y-84904761D01*
X-25500000Y-84952380D01*
X-25738095Y-84952380D01*
X-24214285Y-84952380D02*
X-24785714Y-84952380D01*
X-24500000Y-84952380D02*
X-24500000Y-83952380D01*
X-24595238Y-84095238D01*
X-24690476Y-84190476D01*
X-24785714Y-84238095D01*
%TO.C,D2*%
X-25738095Y-109952380D02*
X-25738095Y-108952380D01*
X-25500000Y-108952380D01*
X-25357142Y-109000000D01*
X-25261904Y-109095238D01*
X-25214285Y-109190476D01*
X-25166666Y-109380952D01*
X-25166666Y-109523809D01*
X-25214285Y-109714285D01*
X-25261904Y-109809523D01*
X-25357142Y-109904761D01*
X-25500000Y-109952380D01*
X-25738095Y-109952380D01*
X-24785714Y-109047619D02*
X-24738095Y-109000000D01*
X-24642857Y-108952380D01*
X-24404761Y-108952380D01*
X-24309523Y-109000000D01*
X-24261904Y-109047619D01*
X-24214285Y-109142857D01*
X-24214285Y-109238095D01*
X-24261904Y-109380952D01*
X-24833333Y-109952380D01*
X-24214285Y-109952380D01*
%TO.C,D4*%
X-3238095Y-109952380D02*
X-3238095Y-108952380D01*
X-3000000Y-108952380D01*
X-2857142Y-109000000D01*
X-2761904Y-109095238D01*
X-2714285Y-109190476D01*
X-2666666Y-109380952D01*
X-2666666Y-109523809D01*
X-2714285Y-109714285D01*
X-2761904Y-109809523D01*
X-2857142Y-109904761D01*
X-3000000Y-109952380D01*
X-3238095Y-109952380D01*
X-1809523Y-109285714D02*
X-1809523Y-109952380D01*
X-2047619Y-108904761D02*
X-2285714Y-109619047D01*
X-1666666Y-109619047D01*
%TO.C,D5*%
X19261904Y-84952380D02*
X19261904Y-83952380D01*
X19500000Y-83952380D01*
X19642857Y-84000000D01*
X19738095Y-84095238D01*
X19785714Y-84190476D01*
X19833333Y-84380952D01*
X19833333Y-84523809D01*
X19785714Y-84714285D01*
X19738095Y-84809523D01*
X19642857Y-84904761D01*
X19500000Y-84952380D01*
X19261904Y-84952380D01*
X20738095Y-83952380D02*
X20261904Y-83952380D01*
X20214285Y-84428571D01*
X20261904Y-84380952D01*
X20357142Y-84333333D01*
X20595238Y-84333333D01*
X20690476Y-84380952D01*
X20738095Y-84428571D01*
X20785714Y-84523809D01*
X20785714Y-84761904D01*
X20738095Y-84857142D01*
X20690476Y-84904761D01*
X20595238Y-84952380D01*
X20357142Y-84952380D01*
X20261904Y-84904761D01*
X20214285Y-84857142D01*
%TO.C,D6*%
X19261904Y-109952380D02*
X19261904Y-108952380D01*
X19500000Y-108952380D01*
X19642857Y-109000000D01*
X19738095Y-109095238D01*
X19785714Y-109190476D01*
X19833333Y-109380952D01*
X19833333Y-109523809D01*
X19785714Y-109714285D01*
X19738095Y-109809523D01*
X19642857Y-109904761D01*
X19500000Y-109952380D01*
X19261904Y-109952380D01*
X20690476Y-108952380D02*
X20500000Y-108952380D01*
X20404761Y-109000000D01*
X20357142Y-109047619D01*
X20261904Y-109190476D01*
X20214285Y-109380952D01*
X20214285Y-109761904D01*
X20261904Y-109857142D01*
X20309523Y-109904761D01*
X20404761Y-109952380D01*
X20595238Y-109952380D01*
X20690476Y-109904761D01*
X20738095Y-109857142D01*
X20785714Y-109761904D01*
X20785714Y-109523809D01*
X20738095Y-109428571D01*
X20690476Y-109380952D01*
X20595238Y-109333333D01*
X20404761Y-109333333D01*
X20309523Y-109380952D01*
X20261904Y-109428571D01*
X20214285Y-109523809D01*
%TO.C,D7*%
X41761904Y-84952380D02*
X41761904Y-83952380D01*
X42000000Y-83952380D01*
X42142857Y-84000000D01*
X42238095Y-84095238D01*
X42285714Y-84190476D01*
X42333333Y-84380952D01*
X42333333Y-84523809D01*
X42285714Y-84714285D01*
X42238095Y-84809523D01*
X42142857Y-84904761D01*
X42000000Y-84952380D01*
X41761904Y-84952380D01*
X42666666Y-83952380D02*
X43333333Y-83952380D01*
X42904761Y-84952380D01*
%TO.C,D8*%
X41761904Y-109952380D02*
X41761904Y-108952380D01*
X42000000Y-108952380D01*
X42142857Y-109000000D01*
X42238095Y-109095238D01*
X42285714Y-109190476D01*
X42333333Y-109380952D01*
X42333333Y-109523809D01*
X42285714Y-109714285D01*
X42238095Y-109809523D01*
X42142857Y-109904761D01*
X42000000Y-109952380D01*
X41761904Y-109952380D01*
X42904761Y-109380952D02*
X42809523Y-109333333D01*
X42761904Y-109285714D01*
X42714285Y-109190476D01*
X42714285Y-109142857D01*
X42761904Y-109047619D01*
X42809523Y-109000000D01*
X42904761Y-108952380D01*
X43095238Y-108952380D01*
X43190476Y-109000000D01*
X43238095Y-109047619D01*
X43285714Y-109142857D01*
X43285714Y-109190476D01*
X43238095Y-109285714D01*
X43190476Y-109333333D01*
X43095238Y-109380952D01*
X42904761Y-109380952D01*
X42809523Y-109428571D01*
X42761904Y-109476190D01*
X42714285Y-109571428D01*
X42714285Y-109761904D01*
X42761904Y-109857142D01*
X42809523Y-109904761D01*
X42904761Y-109952380D01*
X43095238Y-109952380D01*
X43190476Y-109904761D01*
X43238095Y-109857142D01*
X43285714Y-109761904D01*
X43285714Y-109571428D01*
X43238095Y-109476190D01*
X43190476Y-109428571D01*
X43095238Y-109380952D01*
%TO.C,D9*%
X64261904Y-84952380D02*
X64261904Y-83952380D01*
X64500000Y-83952380D01*
X64642857Y-84000000D01*
X64738095Y-84095238D01*
X64785714Y-84190476D01*
X64833333Y-84380952D01*
X64833333Y-84523809D01*
X64785714Y-84714285D01*
X64738095Y-84809523D01*
X64642857Y-84904761D01*
X64500000Y-84952380D01*
X64261904Y-84952380D01*
X65309523Y-84952380D02*
X65500000Y-84952380D01*
X65595238Y-84904761D01*
X65642857Y-84857142D01*
X65738095Y-84714285D01*
X65785714Y-84523809D01*
X65785714Y-84142857D01*
X65738095Y-84047619D01*
X65690476Y-84000000D01*
X65595238Y-83952380D01*
X65404761Y-83952380D01*
X65309523Y-84000000D01*
X65261904Y-84047619D01*
X65214285Y-84142857D01*
X65214285Y-84380952D01*
X65261904Y-84476190D01*
X65309523Y-84523809D01*
X65404761Y-84571428D01*
X65595238Y-84571428D01*
X65690476Y-84523809D01*
X65738095Y-84476190D01*
X65785714Y-84380952D01*
%TO.C,D10*%
X63785714Y-109952380D02*
X63785714Y-108952380D01*
X64023809Y-108952380D01*
X64166666Y-109000000D01*
X64261904Y-109095238D01*
X64309523Y-109190476D01*
X64357142Y-109380952D01*
X64357142Y-109523809D01*
X64309523Y-109714285D01*
X64261904Y-109809523D01*
X64166666Y-109904761D01*
X64023809Y-109952380D01*
X63785714Y-109952380D01*
X65309523Y-109952380D02*
X64738095Y-109952380D01*
X65023809Y-109952380D02*
X65023809Y-108952380D01*
X64928571Y-109095238D01*
X64833333Y-109190476D01*
X64738095Y-109238095D01*
X65928571Y-108952380D02*
X66023809Y-108952380D01*
X66119047Y-109000000D01*
X66166666Y-109047619D01*
X66214285Y-109142857D01*
X66261904Y-109333333D01*
X66261904Y-109571428D01*
X66214285Y-109761904D01*
X66166666Y-109857142D01*
X66119047Y-109904761D01*
X66023809Y-109952380D01*
X65928571Y-109952380D01*
X65833333Y-109904761D01*
X65785714Y-109857142D01*
X65738095Y-109761904D01*
X65690476Y-109571428D01*
X65690476Y-109333333D01*
X65738095Y-109142857D01*
X65785714Y-109047619D01*
X65833333Y-109000000D01*
X65928571Y-108952380D01*
%TO.C,D11*%
X86285714Y-84952380D02*
X86285714Y-83952380D01*
X86523809Y-83952380D01*
X86666666Y-84000000D01*
X86761904Y-84095238D01*
X86809523Y-84190476D01*
X86857142Y-84380952D01*
X86857142Y-84523809D01*
X86809523Y-84714285D01*
X86761904Y-84809523D01*
X86666666Y-84904761D01*
X86523809Y-84952380D01*
X86285714Y-84952380D01*
X87809523Y-84952380D02*
X87238095Y-84952380D01*
X87523809Y-84952380D02*
X87523809Y-83952380D01*
X87428571Y-84095238D01*
X87333333Y-84190476D01*
X87238095Y-84238095D01*
X88761904Y-84952380D02*
X88190476Y-84952380D01*
X88476190Y-84952380D02*
X88476190Y-83952380D01*
X88380952Y-84095238D01*
X88285714Y-84190476D01*
X88190476Y-84238095D01*
%TO.C,D12*%
X86285714Y-109952380D02*
X86285714Y-108952380D01*
X86523809Y-108952380D01*
X86666666Y-109000000D01*
X86761904Y-109095238D01*
X86809523Y-109190476D01*
X86857142Y-109380952D01*
X86857142Y-109523809D01*
X86809523Y-109714285D01*
X86761904Y-109809523D01*
X86666666Y-109904761D01*
X86523809Y-109952380D01*
X86285714Y-109952380D01*
X87809523Y-109952380D02*
X87238095Y-109952380D01*
X87523809Y-109952380D02*
X87523809Y-108952380D01*
X87428571Y-109095238D01*
X87333333Y-109190476D01*
X87238095Y-109238095D01*
X88190476Y-109047619D02*
X88238095Y-109000000D01*
X88333333Y-108952380D01*
X88571428Y-108952380D01*
X88666666Y-109000000D01*
X88714285Y-109047619D01*
X88761904Y-109142857D01*
X88761904Y-109238095D01*
X88714285Y-109380952D01*
X88142857Y-109952380D01*
X88761904Y-109952380D01*
%TO.C,D13*%
X108785714Y-84952380D02*
X108785714Y-83952380D01*
X109023809Y-83952380D01*
X109166666Y-84000000D01*
X109261904Y-84095238D01*
X109309523Y-84190476D01*
X109357142Y-84380952D01*
X109357142Y-84523809D01*
X109309523Y-84714285D01*
X109261904Y-84809523D01*
X109166666Y-84904761D01*
X109023809Y-84952380D01*
X108785714Y-84952380D01*
X110309523Y-84952380D02*
X109738095Y-84952380D01*
X110023809Y-84952380D02*
X110023809Y-83952380D01*
X109928571Y-84095238D01*
X109833333Y-84190476D01*
X109738095Y-84238095D01*
X110642857Y-83952380D02*
X111261904Y-83952380D01*
X110928571Y-84333333D01*
X111071428Y-84333333D01*
X111166666Y-84380952D01*
X111214285Y-84428571D01*
X111261904Y-84523809D01*
X111261904Y-84761904D01*
X111214285Y-84857142D01*
X111166666Y-84904761D01*
X111071428Y-84952380D01*
X110785714Y-84952380D01*
X110690476Y-84904761D01*
X110642857Y-84857142D01*
%TO.C,D14*%
X108785714Y-109952380D02*
X108785714Y-108952380D01*
X109023809Y-108952380D01*
X109166666Y-109000000D01*
X109261904Y-109095238D01*
X109309523Y-109190476D01*
X109357142Y-109380952D01*
X109357142Y-109523809D01*
X109309523Y-109714285D01*
X109261904Y-109809523D01*
X109166666Y-109904761D01*
X109023809Y-109952380D01*
X108785714Y-109952380D01*
X110309523Y-109952380D02*
X109738095Y-109952380D01*
X110023809Y-109952380D02*
X110023809Y-108952380D01*
X109928571Y-109095238D01*
X109833333Y-109190476D01*
X109738095Y-109238095D01*
X111166666Y-109285714D02*
X111166666Y-109952380D01*
X110928571Y-108904761D02*
X110690476Y-109619047D01*
X111309523Y-109619047D01*
%TO.C,D15*%
X131285714Y-84952380D02*
X131285714Y-83952380D01*
X131523809Y-83952380D01*
X131666666Y-84000000D01*
X131761904Y-84095238D01*
X131809523Y-84190476D01*
X131857142Y-84380952D01*
X131857142Y-84523809D01*
X131809523Y-84714285D01*
X131761904Y-84809523D01*
X131666666Y-84904761D01*
X131523809Y-84952380D01*
X131285714Y-84952380D01*
X132809523Y-84952380D02*
X132238095Y-84952380D01*
X132523809Y-84952380D02*
X132523809Y-83952380D01*
X132428571Y-84095238D01*
X132333333Y-84190476D01*
X132238095Y-84238095D01*
X133714285Y-83952380D02*
X133238095Y-83952380D01*
X133190476Y-84428571D01*
X133238095Y-84380952D01*
X133333333Y-84333333D01*
X133571428Y-84333333D01*
X133666666Y-84380952D01*
X133714285Y-84428571D01*
X133761904Y-84523809D01*
X133761904Y-84761904D01*
X133714285Y-84857142D01*
X133666666Y-84904761D01*
X133571428Y-84952380D01*
X133333333Y-84952380D01*
X133238095Y-84904761D01*
X133190476Y-84857142D01*
%TO.C,D16*%
X131285714Y-109952380D02*
X131285714Y-108952380D01*
X131523809Y-108952380D01*
X131666666Y-109000000D01*
X131761904Y-109095238D01*
X131809523Y-109190476D01*
X131857142Y-109380952D01*
X131857142Y-109523809D01*
X131809523Y-109714285D01*
X131761904Y-109809523D01*
X131666666Y-109904761D01*
X131523809Y-109952380D01*
X131285714Y-109952380D01*
X132809523Y-109952380D02*
X132238095Y-109952380D01*
X132523809Y-109952380D02*
X132523809Y-108952380D01*
X132428571Y-109095238D01*
X132333333Y-109190476D01*
X132238095Y-109238095D01*
X133666666Y-108952380D02*
X133476190Y-108952380D01*
X133380952Y-109000000D01*
X133333333Y-109047619D01*
X133238095Y-109190476D01*
X133190476Y-109380952D01*
X133190476Y-109761904D01*
X133238095Y-109857142D01*
X133285714Y-109904761D01*
X133380952Y-109952380D01*
X133571428Y-109952380D01*
X133666666Y-109904761D01*
X133714285Y-109857142D01*
X133761904Y-109761904D01*
X133761904Y-109523809D01*
X133714285Y-109428571D01*
X133666666Y-109380952D01*
X133571428Y-109333333D01*
X133380952Y-109333333D01*
X133285714Y-109380952D01*
X133238095Y-109428571D01*
X133190476Y-109523809D01*
%TO.C,D17*%
X153785714Y-84952380D02*
X153785714Y-83952380D01*
X154023809Y-83952380D01*
X154166666Y-84000000D01*
X154261904Y-84095238D01*
X154309523Y-84190476D01*
X154357142Y-84380952D01*
X154357142Y-84523809D01*
X154309523Y-84714285D01*
X154261904Y-84809523D01*
X154166666Y-84904761D01*
X154023809Y-84952380D01*
X153785714Y-84952380D01*
X155309523Y-84952380D02*
X154738095Y-84952380D01*
X155023809Y-84952380D02*
X155023809Y-83952380D01*
X154928571Y-84095238D01*
X154833333Y-84190476D01*
X154738095Y-84238095D01*
X155642857Y-83952380D02*
X156309523Y-83952380D01*
X155880952Y-84952380D01*
%TO.C,D18*%
X153785714Y-109952380D02*
X153785714Y-108952380D01*
X154023809Y-108952380D01*
X154166666Y-109000000D01*
X154261904Y-109095238D01*
X154309523Y-109190476D01*
X154357142Y-109380952D01*
X154357142Y-109523809D01*
X154309523Y-109714285D01*
X154261904Y-109809523D01*
X154166666Y-109904761D01*
X154023809Y-109952380D01*
X153785714Y-109952380D01*
X155309523Y-109952380D02*
X154738095Y-109952380D01*
X155023809Y-109952380D02*
X155023809Y-108952380D01*
X154928571Y-109095238D01*
X154833333Y-109190476D01*
X154738095Y-109238095D01*
X155880952Y-109380952D02*
X155785714Y-109333333D01*
X155738095Y-109285714D01*
X155690476Y-109190476D01*
X155690476Y-109142857D01*
X155738095Y-109047619D01*
X155785714Y-109000000D01*
X155880952Y-108952380D01*
X156071428Y-108952380D01*
X156166666Y-109000000D01*
X156214285Y-109047619D01*
X156261904Y-109142857D01*
X156261904Y-109190476D01*
X156214285Y-109285714D01*
X156166666Y-109333333D01*
X156071428Y-109380952D01*
X155880952Y-109380952D01*
X155785714Y-109428571D01*
X155738095Y-109476190D01*
X155690476Y-109571428D01*
X155690476Y-109761904D01*
X155738095Y-109857142D01*
X155785714Y-109904761D01*
X155880952Y-109952380D01*
X156071428Y-109952380D01*
X156166666Y-109904761D01*
X156214285Y-109857142D01*
X156261904Y-109761904D01*
X156261904Y-109571428D01*
X156214285Y-109476190D01*
X156166666Y-109428571D01*
X156071428Y-109380952D01*
%TO.C,D19*%
X176285714Y-84952380D02*
X176285714Y-83952380D01*
X176523809Y-83952380D01*
X176666666Y-84000000D01*
X176761904Y-84095238D01*
X176809523Y-84190476D01*
X176857142Y-84380952D01*
X176857142Y-84523809D01*
X176809523Y-84714285D01*
X176761904Y-84809523D01*
X176666666Y-84904761D01*
X176523809Y-84952380D01*
X176285714Y-84952380D01*
X177809523Y-84952380D02*
X177238095Y-84952380D01*
X177523809Y-84952380D02*
X177523809Y-83952380D01*
X177428571Y-84095238D01*
X177333333Y-84190476D01*
X177238095Y-84238095D01*
X178285714Y-84952380D02*
X178476190Y-84952380D01*
X178571428Y-84904761D01*
X178619047Y-84857142D01*
X178714285Y-84714285D01*
X178761904Y-84523809D01*
X178761904Y-84142857D01*
X178714285Y-84047619D01*
X178666666Y-84000000D01*
X178571428Y-83952380D01*
X178380952Y-83952380D01*
X178285714Y-84000000D01*
X178238095Y-84047619D01*
X178190476Y-84142857D01*
X178190476Y-84380952D01*
X178238095Y-84476190D01*
X178285714Y-84523809D01*
X178380952Y-84571428D01*
X178571428Y-84571428D01*
X178666666Y-84523809D01*
X178714285Y-84476190D01*
X178761904Y-84380952D01*
%TO.C,D20*%
X176285714Y-109952380D02*
X176285714Y-108952380D01*
X176523809Y-108952380D01*
X176666666Y-109000000D01*
X176761904Y-109095238D01*
X176809523Y-109190476D01*
X176857142Y-109380952D01*
X176857142Y-109523809D01*
X176809523Y-109714285D01*
X176761904Y-109809523D01*
X176666666Y-109904761D01*
X176523809Y-109952380D01*
X176285714Y-109952380D01*
X177238095Y-109047619D02*
X177285714Y-109000000D01*
X177380952Y-108952380D01*
X177619047Y-108952380D01*
X177714285Y-109000000D01*
X177761904Y-109047619D01*
X177809523Y-109142857D01*
X177809523Y-109238095D01*
X177761904Y-109380952D01*
X177190476Y-109952380D01*
X177809523Y-109952380D01*
X178428571Y-108952380D02*
X178523809Y-108952380D01*
X178619047Y-109000000D01*
X178666666Y-109047619D01*
X178714285Y-109142857D01*
X178761904Y-109333333D01*
X178761904Y-109571428D01*
X178714285Y-109761904D01*
X178666666Y-109857142D01*
X178619047Y-109904761D01*
X178523809Y-109952380D01*
X178428571Y-109952380D01*
X178333333Y-109904761D01*
X178285714Y-109857142D01*
X178238095Y-109761904D01*
X178190476Y-109571428D01*
X178190476Y-109333333D01*
X178238095Y-109142857D01*
X178285714Y-109047619D01*
X178333333Y-109000000D01*
X178428571Y-108952380D01*
%TO.C,D21*%
X198785714Y-84952380D02*
X198785714Y-83952380D01*
X199023809Y-83952380D01*
X199166666Y-84000000D01*
X199261904Y-84095238D01*
X199309523Y-84190476D01*
X199357142Y-84380952D01*
X199357142Y-84523809D01*
X199309523Y-84714285D01*
X199261904Y-84809523D01*
X199166666Y-84904761D01*
X199023809Y-84952380D01*
X198785714Y-84952380D01*
X199738095Y-84047619D02*
X199785714Y-84000000D01*
X199880952Y-83952380D01*
X200119047Y-83952380D01*
X200214285Y-84000000D01*
X200261904Y-84047619D01*
X200309523Y-84142857D01*
X200309523Y-84238095D01*
X200261904Y-84380952D01*
X199690476Y-84952380D01*
X200309523Y-84952380D01*
X201261904Y-84952380D02*
X200690476Y-84952380D01*
X200976190Y-84952380D02*
X200976190Y-83952380D01*
X200880952Y-84095238D01*
X200785714Y-84190476D01*
X200690476Y-84238095D01*
%TO.C,D22*%
X198785714Y-109952380D02*
X198785714Y-108952380D01*
X199023809Y-108952380D01*
X199166666Y-109000000D01*
X199261904Y-109095238D01*
X199309523Y-109190476D01*
X199357142Y-109380952D01*
X199357142Y-109523809D01*
X199309523Y-109714285D01*
X199261904Y-109809523D01*
X199166666Y-109904761D01*
X199023809Y-109952380D01*
X198785714Y-109952380D01*
X199738095Y-109047619D02*
X199785714Y-109000000D01*
X199880952Y-108952380D01*
X200119047Y-108952380D01*
X200214285Y-109000000D01*
X200261904Y-109047619D01*
X200309523Y-109142857D01*
X200309523Y-109238095D01*
X200261904Y-109380952D01*
X199690476Y-109952380D01*
X200309523Y-109952380D01*
X200690476Y-109047619D02*
X200738095Y-109000000D01*
X200833333Y-108952380D01*
X201071428Y-108952380D01*
X201166666Y-109000000D01*
X201214285Y-109047619D01*
X201261904Y-109142857D01*
X201261904Y-109238095D01*
X201214285Y-109380952D01*
X200642857Y-109952380D01*
X201261904Y-109952380D01*
%TO.C,D23*%
X221285714Y-84952380D02*
X221285714Y-83952380D01*
X221523809Y-83952380D01*
X221666666Y-84000000D01*
X221761904Y-84095238D01*
X221809523Y-84190476D01*
X221857142Y-84380952D01*
X221857142Y-84523809D01*
X221809523Y-84714285D01*
X221761904Y-84809523D01*
X221666666Y-84904761D01*
X221523809Y-84952380D01*
X221285714Y-84952380D01*
X222238095Y-84047619D02*
X222285714Y-84000000D01*
X222380952Y-83952380D01*
X222619047Y-83952380D01*
X222714285Y-84000000D01*
X222761904Y-84047619D01*
X222809523Y-84142857D01*
X222809523Y-84238095D01*
X222761904Y-84380952D01*
X222190476Y-84952380D01*
X222809523Y-84952380D01*
X223142857Y-83952380D02*
X223761904Y-83952380D01*
X223428571Y-84333333D01*
X223571428Y-84333333D01*
X223666666Y-84380952D01*
X223714285Y-84428571D01*
X223761904Y-84523809D01*
X223761904Y-84761904D01*
X223714285Y-84857142D01*
X223666666Y-84904761D01*
X223571428Y-84952380D01*
X223285714Y-84952380D01*
X223190476Y-84904761D01*
X223142857Y-84857142D01*
%TO.C,D24*%
X221285714Y-109952380D02*
X221285714Y-108952380D01*
X221523809Y-108952380D01*
X221666666Y-109000000D01*
X221761904Y-109095238D01*
X221809523Y-109190476D01*
X221857142Y-109380952D01*
X221857142Y-109523809D01*
X221809523Y-109714285D01*
X221761904Y-109809523D01*
X221666666Y-109904761D01*
X221523809Y-109952380D01*
X221285714Y-109952380D01*
X222238095Y-109047619D02*
X222285714Y-109000000D01*
X222380952Y-108952380D01*
X222619047Y-108952380D01*
X222714285Y-109000000D01*
X222761904Y-109047619D01*
X222809523Y-109142857D01*
X222809523Y-109238095D01*
X222761904Y-109380952D01*
X222190476Y-109952380D01*
X222809523Y-109952380D01*
X223666666Y-109285714D02*
X223666666Y-109952380D01*
X223428571Y-108904761D02*
X223190476Y-109619047D01*
X223809523Y-109619047D01*
%TO.C,D25*%
X243785714Y-84952380D02*
X243785714Y-83952380D01*
X244023809Y-83952380D01*
X244166666Y-84000000D01*
X244261904Y-84095238D01*
X244309523Y-84190476D01*
X244357142Y-84380952D01*
X244357142Y-84523809D01*
X244309523Y-84714285D01*
X244261904Y-84809523D01*
X244166666Y-84904761D01*
X244023809Y-84952380D01*
X243785714Y-84952380D01*
X244738095Y-84047619D02*
X244785714Y-84000000D01*
X244880952Y-83952380D01*
X245119047Y-83952380D01*
X245214285Y-84000000D01*
X245261904Y-84047619D01*
X245309523Y-84142857D01*
X245309523Y-84238095D01*
X245261904Y-84380952D01*
X244690476Y-84952380D01*
X245309523Y-84952380D01*
X246214285Y-83952380D02*
X245738095Y-83952380D01*
X245690476Y-84428571D01*
X245738095Y-84380952D01*
X245833333Y-84333333D01*
X246071428Y-84333333D01*
X246166666Y-84380952D01*
X246214285Y-84428571D01*
X246261904Y-84523809D01*
X246261904Y-84761904D01*
X246214285Y-84857142D01*
X246166666Y-84904761D01*
X246071428Y-84952380D01*
X245833333Y-84952380D01*
X245738095Y-84904761D01*
X245690476Y-84857142D01*
%TO.C,D26*%
X243785714Y-109952380D02*
X243785714Y-108952380D01*
X244023809Y-108952380D01*
X244166666Y-109000000D01*
X244261904Y-109095238D01*
X244309523Y-109190476D01*
X244357142Y-109380952D01*
X244357142Y-109523809D01*
X244309523Y-109714285D01*
X244261904Y-109809523D01*
X244166666Y-109904761D01*
X244023809Y-109952380D01*
X243785714Y-109952380D01*
X244738095Y-109047619D02*
X244785714Y-109000000D01*
X244880952Y-108952380D01*
X245119047Y-108952380D01*
X245214285Y-109000000D01*
X245261904Y-109047619D01*
X245309523Y-109142857D01*
X245309523Y-109238095D01*
X245261904Y-109380952D01*
X244690476Y-109952380D01*
X245309523Y-109952380D01*
X246166666Y-108952380D02*
X245976190Y-108952380D01*
X245880952Y-109000000D01*
X245833333Y-109047619D01*
X245738095Y-109190476D01*
X245690476Y-109380952D01*
X245690476Y-109761904D01*
X245738095Y-109857142D01*
X245785714Y-109904761D01*
X245880952Y-109952380D01*
X246071428Y-109952380D01*
X246166666Y-109904761D01*
X246214285Y-109857142D01*
X246261904Y-109761904D01*
X246261904Y-109523809D01*
X246214285Y-109428571D01*
X246166666Y-109380952D01*
X246071428Y-109333333D01*
X245880952Y-109333333D01*
X245785714Y-109380952D01*
X245738095Y-109428571D01*
X245690476Y-109523809D01*
%TO.C,D27*%
X266285714Y-84952380D02*
X266285714Y-83952380D01*
X266523809Y-83952380D01*
X266666666Y-84000000D01*
X266761904Y-84095238D01*
X266809523Y-84190476D01*
X266857142Y-84380952D01*
X266857142Y-84523809D01*
X266809523Y-84714285D01*
X266761904Y-84809523D01*
X266666666Y-84904761D01*
X266523809Y-84952380D01*
X266285714Y-84952380D01*
X267238095Y-84047619D02*
X267285714Y-84000000D01*
X267380952Y-83952380D01*
X267619047Y-83952380D01*
X267714285Y-84000000D01*
X267761904Y-84047619D01*
X267809523Y-84142857D01*
X267809523Y-84238095D01*
X267761904Y-84380952D01*
X267190476Y-84952380D01*
X267809523Y-84952380D01*
X268142857Y-83952380D02*
X268809523Y-83952380D01*
X268380952Y-84952380D01*
%TO.C,D28*%
X266285714Y-109952380D02*
X266285714Y-108952380D01*
X266523809Y-108952380D01*
X266666666Y-109000000D01*
X266761904Y-109095238D01*
X266809523Y-109190476D01*
X266857142Y-109380952D01*
X266857142Y-109523809D01*
X266809523Y-109714285D01*
X266761904Y-109809523D01*
X266666666Y-109904761D01*
X266523809Y-109952380D01*
X266285714Y-109952380D01*
X267238095Y-109047619D02*
X267285714Y-109000000D01*
X267380952Y-108952380D01*
X267619047Y-108952380D01*
X267714285Y-109000000D01*
X267761904Y-109047619D01*
X267809523Y-109142857D01*
X267809523Y-109238095D01*
X267761904Y-109380952D01*
X267190476Y-109952380D01*
X267809523Y-109952380D01*
X268380952Y-109380952D02*
X268285714Y-109333333D01*
X268238095Y-109285714D01*
X268190476Y-109190476D01*
X268190476Y-109142857D01*
X268238095Y-109047619D01*
X268285714Y-109000000D01*
X268380952Y-108952380D01*
X268571428Y-108952380D01*
X268666666Y-109000000D01*
X268714285Y-109047619D01*
X268761904Y-109142857D01*
X268761904Y-109190476D01*
X268714285Y-109285714D01*
X268666666Y-109333333D01*
X268571428Y-109380952D01*
X268380952Y-109380952D01*
X268285714Y-109428571D01*
X268238095Y-109476190D01*
X268190476Y-109571428D01*
X268190476Y-109761904D01*
X268238095Y-109857142D01*
X268285714Y-109904761D01*
X268380952Y-109952380D01*
X268571428Y-109952380D01*
X268666666Y-109904761D01*
X268714285Y-109857142D01*
X268761904Y-109761904D01*
X268761904Y-109571428D01*
X268714285Y-109476190D01*
X268666666Y-109428571D01*
X268571428Y-109380952D01*
%TO.C,D29*%
X288785714Y-84952380D02*
X288785714Y-83952380D01*
X289023809Y-83952380D01*
X289166666Y-84000000D01*
X289261904Y-84095238D01*
X289309523Y-84190476D01*
X289357142Y-84380952D01*
X289357142Y-84523809D01*
X289309523Y-84714285D01*
X289261904Y-84809523D01*
X289166666Y-84904761D01*
X289023809Y-84952380D01*
X288785714Y-84952380D01*
X289738095Y-84047619D02*
X289785714Y-84000000D01*
X289880952Y-83952380D01*
X290119047Y-83952380D01*
X290214285Y-84000000D01*
X290261904Y-84047619D01*
X290309523Y-84142857D01*
X290309523Y-84238095D01*
X290261904Y-84380952D01*
X289690476Y-84952380D01*
X290309523Y-84952380D01*
X290785714Y-84952380D02*
X290976190Y-84952380D01*
X291071428Y-84904761D01*
X291119047Y-84857142D01*
X291214285Y-84714285D01*
X291261904Y-84523809D01*
X291261904Y-84142857D01*
X291214285Y-84047619D01*
X291166666Y-84000000D01*
X291071428Y-83952380D01*
X290880952Y-83952380D01*
X290785714Y-84000000D01*
X290738095Y-84047619D01*
X290690476Y-84142857D01*
X290690476Y-84380952D01*
X290738095Y-84476190D01*
X290785714Y-84523809D01*
X290880952Y-84571428D01*
X291071428Y-84571428D01*
X291166666Y-84523809D01*
X291214285Y-84476190D01*
X291261904Y-84380952D01*
%TO.C,D30*%
X288785714Y-109952380D02*
X288785714Y-108952380D01*
X289023809Y-108952380D01*
X289166666Y-109000000D01*
X289261904Y-109095238D01*
X289309523Y-109190476D01*
X289357142Y-109380952D01*
X289357142Y-109523809D01*
X289309523Y-109714285D01*
X289261904Y-109809523D01*
X289166666Y-109904761D01*
X289023809Y-109952380D01*
X288785714Y-109952380D01*
X289690476Y-108952380D02*
X290309523Y-108952380D01*
X289976190Y-109333333D01*
X290119047Y-109333333D01*
X290214285Y-109380952D01*
X290261904Y-109428571D01*
X290309523Y-109523809D01*
X290309523Y-109761904D01*
X290261904Y-109857142D01*
X290214285Y-109904761D01*
X290119047Y-109952380D01*
X289833333Y-109952380D01*
X289738095Y-109904761D01*
X289690476Y-109857142D01*
X290928571Y-108952380D02*
X291023809Y-108952380D01*
X291119047Y-109000000D01*
X291166666Y-109047619D01*
X291214285Y-109142857D01*
X291261904Y-109333333D01*
X291261904Y-109571428D01*
X291214285Y-109761904D01*
X291166666Y-109857142D01*
X291119047Y-109904761D01*
X291023809Y-109952380D01*
X290928571Y-109952380D01*
X290833333Y-109904761D01*
X290785714Y-109857142D01*
X290738095Y-109761904D01*
X290690476Y-109571428D01*
X290690476Y-109333333D01*
X290738095Y-109142857D01*
X290785714Y-109047619D01*
X290833333Y-109000000D01*
X290928571Y-108952380D01*
%TO.C,D31*%
X311285714Y-84952380D02*
X311285714Y-83952380D01*
X311523809Y-83952380D01*
X311666666Y-84000000D01*
X311761904Y-84095238D01*
X311809523Y-84190476D01*
X311857142Y-84380952D01*
X311857142Y-84523809D01*
X311809523Y-84714285D01*
X311761904Y-84809523D01*
X311666666Y-84904761D01*
X311523809Y-84952380D01*
X311285714Y-84952380D01*
X312190476Y-83952380D02*
X312809523Y-83952380D01*
X312476190Y-84333333D01*
X312619047Y-84333333D01*
X312714285Y-84380952D01*
X312761904Y-84428571D01*
X312809523Y-84523809D01*
X312809523Y-84761904D01*
X312761904Y-84857142D01*
X312714285Y-84904761D01*
X312619047Y-84952380D01*
X312333333Y-84952380D01*
X312238095Y-84904761D01*
X312190476Y-84857142D01*
X313761904Y-84952380D02*
X313190476Y-84952380D01*
X313476190Y-84952380D02*
X313476190Y-83952380D01*
X313380952Y-84095238D01*
X313285714Y-84190476D01*
X313190476Y-84238095D01*
%TO.C,D32*%
X311285714Y-109952380D02*
X311285714Y-108952380D01*
X311523809Y-108952380D01*
X311666666Y-109000000D01*
X311761904Y-109095238D01*
X311809523Y-109190476D01*
X311857142Y-109380952D01*
X311857142Y-109523809D01*
X311809523Y-109714285D01*
X311761904Y-109809523D01*
X311666666Y-109904761D01*
X311523809Y-109952380D01*
X311285714Y-109952380D01*
X312190476Y-108952380D02*
X312809523Y-108952380D01*
X312476190Y-109333333D01*
X312619047Y-109333333D01*
X312714285Y-109380952D01*
X312761904Y-109428571D01*
X312809523Y-109523809D01*
X312809523Y-109761904D01*
X312761904Y-109857142D01*
X312714285Y-109904761D01*
X312619047Y-109952380D01*
X312333333Y-109952380D01*
X312238095Y-109904761D01*
X312190476Y-109857142D01*
X313190476Y-109047619D02*
X313238095Y-109000000D01*
X313333333Y-108952380D01*
X313571428Y-108952380D01*
X313666666Y-109000000D01*
X313714285Y-109047619D01*
X313761904Y-109142857D01*
X313761904Y-109238095D01*
X313714285Y-109380952D01*
X313142857Y-109952380D01*
X313761904Y-109952380D01*
%TO.C,D33*%
X333785714Y-84952380D02*
X333785714Y-83952380D01*
X334023809Y-83952380D01*
X334166666Y-84000000D01*
X334261904Y-84095238D01*
X334309523Y-84190476D01*
X334357142Y-84380952D01*
X334357142Y-84523809D01*
X334309523Y-84714285D01*
X334261904Y-84809523D01*
X334166666Y-84904761D01*
X334023809Y-84952380D01*
X333785714Y-84952380D01*
X334690476Y-83952380D02*
X335309523Y-83952380D01*
X334976190Y-84333333D01*
X335119047Y-84333333D01*
X335214285Y-84380952D01*
X335261904Y-84428571D01*
X335309523Y-84523809D01*
X335309523Y-84761904D01*
X335261904Y-84857142D01*
X335214285Y-84904761D01*
X335119047Y-84952380D01*
X334833333Y-84952380D01*
X334738095Y-84904761D01*
X334690476Y-84857142D01*
X335642857Y-83952380D02*
X336261904Y-83952380D01*
X335928571Y-84333333D01*
X336071428Y-84333333D01*
X336166666Y-84380952D01*
X336214285Y-84428571D01*
X336261904Y-84523809D01*
X336261904Y-84761904D01*
X336214285Y-84857142D01*
X336166666Y-84904761D01*
X336071428Y-84952380D01*
X335785714Y-84952380D01*
X335690476Y-84904761D01*
X335642857Y-84857142D01*
%TO.C,D34*%
X333785714Y-109952380D02*
X333785714Y-108952380D01*
X334023809Y-108952380D01*
X334166666Y-109000000D01*
X334261904Y-109095238D01*
X334309523Y-109190476D01*
X334357142Y-109380952D01*
X334357142Y-109523809D01*
X334309523Y-109714285D01*
X334261904Y-109809523D01*
X334166666Y-109904761D01*
X334023809Y-109952380D01*
X333785714Y-109952380D01*
X334690476Y-108952380D02*
X335309523Y-108952380D01*
X334976190Y-109333333D01*
X335119047Y-109333333D01*
X335214285Y-109380952D01*
X335261904Y-109428571D01*
X335309523Y-109523809D01*
X335309523Y-109761904D01*
X335261904Y-109857142D01*
X335214285Y-109904761D01*
X335119047Y-109952380D01*
X334833333Y-109952380D01*
X334738095Y-109904761D01*
X334690476Y-109857142D01*
X336166666Y-109285714D02*
X336166666Y-109952380D01*
X335928571Y-108904761D02*
X335690476Y-109619047D01*
X336309523Y-109619047D01*
%TO.C,J1*%
X-28448333Y-83182380D02*
X-28448333Y-83896666D01*
X-28495952Y-84039523D01*
X-28591190Y-84134761D01*
X-28734047Y-84182380D01*
X-28829285Y-84182380D01*
X-27448333Y-84182380D02*
X-28019761Y-84182380D01*
X-27734047Y-84182380D02*
X-27734047Y-83182380D01*
X-27829285Y-83325238D01*
X-27924523Y-83420476D01*
X-28019761Y-83468095D01*
%TO.C,J2*%
X345051666Y-83182380D02*
X345051666Y-83896666D01*
X345004047Y-84039523D01*
X344908809Y-84134761D01*
X344765952Y-84182380D01*
X344670714Y-84182380D01*
X345480238Y-83277619D02*
X345527857Y-83230000D01*
X345623095Y-83182380D01*
X345861190Y-83182380D01*
X345956428Y-83230000D01*
X346004047Y-83277619D01*
X346051666Y-83372857D01*
X346051666Y-83468095D01*
X346004047Y-83610952D01*
X345432619Y-84182380D01*
X346051666Y-84182380D01*
%TD*%
M02*
