%TF.GenerationSoftware,KiCad,Pcbnew,5.1.7-a382d34a8~87~ubuntu20.04.1*%
%TF.CreationDate,2020-11-14T14:33:39-08:00*%
%TF.ProjectId,LedBoard,4c656442-6f61-4726-942e-6b696361645f,rev?*%
%TF.SameCoordinates,Original*%
%TF.FileFunction,Soldermask,Top*%
%TF.FilePolarity,Negative*%
%FSLAX46Y46*%
G04 Gerber Fmt 4.6, Leading zero omitted, Abs format (unit mm)*
G04 Created by KiCad (PCBNEW 5.1.7-a382d34a8~87~ubuntu20.04.1) date 2020-11-14 14:33:39*
%MOMM*%
%LPD*%
G01*
G04 APERTURE LIST*
%ADD10R,0.700000X2.400000*%
%ADD11R,1.600000X2.400000*%
%ADD12C,0.500000*%
%ADD13O,1.700000X1.700000*%
%ADD14R,1.700000X1.700000*%
G04 APERTURE END LIST*
D10*
%TO.C,D3*%
X-4200000Y-82500000D03*
D11*
X-2500000Y-82500000D03*
D12*
X-4200000Y-81600000D03*
X-4200000Y-82200000D03*
X-4200000Y-82800000D03*
X-4200000Y-83400000D03*
X-2000000Y-81700000D03*
X-2950000Y-81700000D03*
X-2500000Y-82100000D03*
X-2950000Y-82500000D03*
X-2000000Y-82500000D03*
X-2500000Y-82950000D03*
X-2950000Y-83400000D03*
X-2950000Y-83400000D03*
X-2000000Y-83400000D03*
D10*
X-4200000Y-82500000D03*
D11*
X-2500000Y-82500000D03*
%TD*%
D10*
%TO.C,D1*%
X-26700000Y-82500000D03*
D11*
X-25000000Y-82500000D03*
D12*
X-26700000Y-81600000D03*
X-26700000Y-82200000D03*
X-26700000Y-82800000D03*
X-26700000Y-83400000D03*
X-24500000Y-81700000D03*
X-25450000Y-81700000D03*
X-25000000Y-82100000D03*
X-25450000Y-82500000D03*
X-24500000Y-82500000D03*
X-25000000Y-82950000D03*
X-25450000Y-83400000D03*
X-25450000Y-83400000D03*
X-24500000Y-83400000D03*
D10*
X-26700000Y-82500000D03*
D11*
X-25000000Y-82500000D03*
%TD*%
D10*
%TO.C,D2*%
X-26700000Y-107500000D03*
D11*
X-25000000Y-107500000D03*
D12*
X-26700000Y-106600000D03*
X-26700000Y-107200000D03*
X-26700000Y-107800000D03*
X-26700000Y-108400000D03*
X-24500000Y-106700000D03*
X-25450000Y-106700000D03*
X-25000000Y-107100000D03*
X-25450000Y-107500000D03*
X-24500000Y-107500000D03*
X-25000000Y-107950000D03*
X-25450000Y-108400000D03*
X-25450000Y-108400000D03*
X-24500000Y-108400000D03*
D10*
X-26700000Y-107500000D03*
D11*
X-25000000Y-107500000D03*
%TD*%
D10*
%TO.C,D4*%
X-4200000Y-107500000D03*
D11*
X-2500000Y-107500000D03*
D12*
X-4200000Y-106600000D03*
X-4200000Y-107200000D03*
X-4200000Y-107800000D03*
X-4200000Y-108400000D03*
X-2000000Y-106700000D03*
X-2950000Y-106700000D03*
X-2500000Y-107100000D03*
X-2950000Y-107500000D03*
X-2000000Y-107500000D03*
X-2500000Y-107950000D03*
X-2950000Y-108400000D03*
X-2950000Y-108400000D03*
X-2000000Y-108400000D03*
D10*
X-4200000Y-107500000D03*
D11*
X-2500000Y-107500000D03*
%TD*%
D10*
%TO.C,D5*%
X18300000Y-82500000D03*
D11*
X20000000Y-82500000D03*
D12*
X18300000Y-81600000D03*
X18300000Y-82200000D03*
X18300000Y-82800000D03*
X18300000Y-83400000D03*
X20500000Y-81700000D03*
X19550000Y-81700000D03*
X20000000Y-82100000D03*
X19550000Y-82500000D03*
X20500000Y-82500000D03*
X20000000Y-82950000D03*
X19550000Y-83400000D03*
X19550000Y-83400000D03*
X20500000Y-83400000D03*
D10*
X18300000Y-82500000D03*
D11*
X20000000Y-82500000D03*
%TD*%
D10*
%TO.C,D6*%
X18300000Y-107500000D03*
D11*
X20000000Y-107500000D03*
D12*
X18300000Y-106600000D03*
X18300000Y-107200000D03*
X18300000Y-107800000D03*
X18300000Y-108400000D03*
X20500000Y-106700000D03*
X19550000Y-106700000D03*
X20000000Y-107100000D03*
X19550000Y-107500000D03*
X20500000Y-107500000D03*
X20000000Y-107950000D03*
X19550000Y-108400000D03*
X19550000Y-108400000D03*
X20500000Y-108400000D03*
D10*
X18300000Y-107500000D03*
D11*
X20000000Y-107500000D03*
%TD*%
D10*
%TO.C,D7*%
X40800000Y-82500000D03*
D11*
X42500000Y-82500000D03*
D12*
X40800000Y-81600000D03*
X40800000Y-82200000D03*
X40800000Y-82800000D03*
X40800000Y-83400000D03*
X43000000Y-81700000D03*
X42050000Y-81700000D03*
X42500000Y-82100000D03*
X42050000Y-82500000D03*
X43000000Y-82500000D03*
X42500000Y-82950000D03*
X42050000Y-83400000D03*
X42050000Y-83400000D03*
X43000000Y-83400000D03*
D10*
X40800000Y-82500000D03*
D11*
X42500000Y-82500000D03*
%TD*%
D10*
%TO.C,D8*%
X40800000Y-107500000D03*
D11*
X42500000Y-107500000D03*
D12*
X40800000Y-106600000D03*
X40800000Y-107200000D03*
X40800000Y-107800000D03*
X40800000Y-108400000D03*
X43000000Y-106700000D03*
X42050000Y-106700000D03*
X42500000Y-107100000D03*
X42050000Y-107500000D03*
X43000000Y-107500000D03*
X42500000Y-107950000D03*
X42050000Y-108400000D03*
X42050000Y-108400000D03*
X43000000Y-108400000D03*
D10*
X40800000Y-107500000D03*
D11*
X42500000Y-107500000D03*
%TD*%
D10*
%TO.C,D9*%
X63300000Y-82500000D03*
D11*
X65000000Y-82500000D03*
D12*
X63300000Y-81600000D03*
X63300000Y-82200000D03*
X63300000Y-82800000D03*
X63300000Y-83400000D03*
X65500000Y-81700000D03*
X64550000Y-81700000D03*
X65000000Y-82100000D03*
X64550000Y-82500000D03*
X65500000Y-82500000D03*
X65000000Y-82950000D03*
X64550000Y-83400000D03*
X64550000Y-83400000D03*
X65500000Y-83400000D03*
D10*
X63300000Y-82500000D03*
D11*
X65000000Y-82500000D03*
%TD*%
D10*
%TO.C,D10*%
X63300000Y-107500000D03*
D11*
X65000000Y-107500000D03*
D12*
X63300000Y-106600000D03*
X63300000Y-107200000D03*
X63300000Y-107800000D03*
X63300000Y-108400000D03*
X65500000Y-106700000D03*
X64550000Y-106700000D03*
X65000000Y-107100000D03*
X64550000Y-107500000D03*
X65500000Y-107500000D03*
X65000000Y-107950000D03*
X64550000Y-108400000D03*
X64550000Y-108400000D03*
X65500000Y-108400000D03*
D10*
X63300000Y-107500000D03*
D11*
X65000000Y-107500000D03*
%TD*%
D10*
%TO.C,D11*%
X85800000Y-82500000D03*
D11*
X87500000Y-82500000D03*
D12*
X85800000Y-81600000D03*
X85800000Y-82200000D03*
X85800000Y-82800000D03*
X85800000Y-83400000D03*
X88000000Y-81700000D03*
X87050000Y-81700000D03*
X87500000Y-82100000D03*
X87050000Y-82500000D03*
X88000000Y-82500000D03*
X87500000Y-82950000D03*
X87050000Y-83400000D03*
X87050000Y-83400000D03*
X88000000Y-83400000D03*
D10*
X85800000Y-82500000D03*
D11*
X87500000Y-82500000D03*
%TD*%
D10*
%TO.C,D12*%
X85800000Y-107500000D03*
D11*
X87500000Y-107500000D03*
D12*
X85800000Y-106600000D03*
X85800000Y-107200000D03*
X85800000Y-107800000D03*
X85800000Y-108400000D03*
X88000000Y-106700000D03*
X87050000Y-106700000D03*
X87500000Y-107100000D03*
X87050000Y-107500000D03*
X88000000Y-107500000D03*
X87500000Y-107950000D03*
X87050000Y-108400000D03*
X87050000Y-108400000D03*
X88000000Y-108400000D03*
D10*
X85800000Y-107500000D03*
D11*
X87500000Y-107500000D03*
%TD*%
D10*
%TO.C,D13*%
X108300000Y-82500000D03*
D11*
X110000000Y-82500000D03*
D12*
X108300000Y-81600000D03*
X108300000Y-82200000D03*
X108300000Y-82800000D03*
X108300000Y-83400000D03*
X110500000Y-81700000D03*
X109550000Y-81700000D03*
X110000000Y-82100000D03*
X109550000Y-82500000D03*
X110500000Y-82500000D03*
X110000000Y-82950000D03*
X109550000Y-83400000D03*
X109550000Y-83400000D03*
X110500000Y-83400000D03*
D10*
X108300000Y-82500000D03*
D11*
X110000000Y-82500000D03*
%TD*%
D10*
%TO.C,D14*%
X108300000Y-107500000D03*
D11*
X110000000Y-107500000D03*
D12*
X108300000Y-106600000D03*
X108300000Y-107200000D03*
X108300000Y-107800000D03*
X108300000Y-108400000D03*
X110500000Y-106700000D03*
X109550000Y-106700000D03*
X110000000Y-107100000D03*
X109550000Y-107500000D03*
X110500000Y-107500000D03*
X110000000Y-107950000D03*
X109550000Y-108400000D03*
X109550000Y-108400000D03*
X110500000Y-108400000D03*
D10*
X108300000Y-107500000D03*
D11*
X110000000Y-107500000D03*
%TD*%
D10*
%TO.C,D15*%
X130800000Y-82500000D03*
D11*
X132500000Y-82500000D03*
D12*
X130800000Y-81600000D03*
X130800000Y-82200000D03*
X130800000Y-82800000D03*
X130800000Y-83400000D03*
X133000000Y-81700000D03*
X132050000Y-81700000D03*
X132500000Y-82100000D03*
X132050000Y-82500000D03*
X133000000Y-82500000D03*
X132500000Y-82950000D03*
X132050000Y-83400000D03*
X132050000Y-83400000D03*
X133000000Y-83400000D03*
D10*
X130800000Y-82500000D03*
D11*
X132500000Y-82500000D03*
%TD*%
D10*
%TO.C,D16*%
X130800000Y-107500000D03*
D11*
X132500000Y-107500000D03*
D12*
X130800000Y-106600000D03*
X130800000Y-107200000D03*
X130800000Y-107800000D03*
X130800000Y-108400000D03*
X133000000Y-106700000D03*
X132050000Y-106700000D03*
X132500000Y-107100000D03*
X132050000Y-107500000D03*
X133000000Y-107500000D03*
X132500000Y-107950000D03*
X132050000Y-108400000D03*
X132050000Y-108400000D03*
X133000000Y-108400000D03*
D10*
X130800000Y-107500000D03*
D11*
X132500000Y-107500000D03*
%TD*%
D10*
%TO.C,D17*%
X153300000Y-82500000D03*
D11*
X155000000Y-82500000D03*
D12*
X153300000Y-81600000D03*
X153300000Y-82200000D03*
X153300000Y-82800000D03*
X153300000Y-83400000D03*
X155500000Y-81700000D03*
X154550000Y-81700000D03*
X155000000Y-82100000D03*
X154550000Y-82500000D03*
X155500000Y-82500000D03*
X155000000Y-82950000D03*
X154550000Y-83400000D03*
X154550000Y-83400000D03*
X155500000Y-83400000D03*
D10*
X153300000Y-82500000D03*
D11*
X155000000Y-82500000D03*
%TD*%
D10*
%TO.C,D18*%
X153300000Y-107500000D03*
D11*
X155000000Y-107500000D03*
D12*
X153300000Y-106600000D03*
X153300000Y-107200000D03*
X153300000Y-107800000D03*
X153300000Y-108400000D03*
X155500000Y-106700000D03*
X154550000Y-106700000D03*
X155000000Y-107100000D03*
X154550000Y-107500000D03*
X155500000Y-107500000D03*
X155000000Y-107950000D03*
X154550000Y-108400000D03*
X154550000Y-108400000D03*
X155500000Y-108400000D03*
D10*
X153300000Y-107500000D03*
D11*
X155000000Y-107500000D03*
%TD*%
D10*
%TO.C,D19*%
X175800000Y-82500000D03*
D11*
X177500000Y-82500000D03*
D12*
X175800000Y-81600000D03*
X175800000Y-82200000D03*
X175800000Y-82800000D03*
X175800000Y-83400000D03*
X178000000Y-81700000D03*
X177050000Y-81700000D03*
X177500000Y-82100000D03*
X177050000Y-82500000D03*
X178000000Y-82500000D03*
X177500000Y-82950000D03*
X177050000Y-83400000D03*
X177050000Y-83400000D03*
X178000000Y-83400000D03*
D10*
X175800000Y-82500000D03*
D11*
X177500000Y-82500000D03*
%TD*%
D10*
%TO.C,D20*%
X175800000Y-107500000D03*
D11*
X177500000Y-107500000D03*
D12*
X175800000Y-106600000D03*
X175800000Y-107200000D03*
X175800000Y-107800000D03*
X175800000Y-108400000D03*
X178000000Y-106700000D03*
X177050000Y-106700000D03*
X177500000Y-107100000D03*
X177050000Y-107500000D03*
X178000000Y-107500000D03*
X177500000Y-107950000D03*
X177050000Y-108400000D03*
X177050000Y-108400000D03*
X178000000Y-108400000D03*
D10*
X175800000Y-107500000D03*
D11*
X177500000Y-107500000D03*
%TD*%
D10*
%TO.C,D21*%
X198300000Y-82500000D03*
D11*
X200000000Y-82500000D03*
D12*
X198300000Y-81600000D03*
X198300000Y-82200000D03*
X198300000Y-82800000D03*
X198300000Y-83400000D03*
X200500000Y-81700000D03*
X199550000Y-81700000D03*
X200000000Y-82100000D03*
X199550000Y-82500000D03*
X200500000Y-82500000D03*
X200000000Y-82950000D03*
X199550000Y-83400000D03*
X199550000Y-83400000D03*
X200500000Y-83400000D03*
D10*
X198300000Y-82500000D03*
D11*
X200000000Y-82500000D03*
%TD*%
D10*
%TO.C,D22*%
X198300000Y-107500000D03*
D11*
X200000000Y-107500000D03*
D12*
X198300000Y-106600000D03*
X198300000Y-107200000D03*
X198300000Y-107800000D03*
X198300000Y-108400000D03*
X200500000Y-106700000D03*
X199550000Y-106700000D03*
X200000000Y-107100000D03*
X199550000Y-107500000D03*
X200500000Y-107500000D03*
X200000000Y-107950000D03*
X199550000Y-108400000D03*
X199550000Y-108400000D03*
X200500000Y-108400000D03*
D10*
X198300000Y-107500000D03*
D11*
X200000000Y-107500000D03*
%TD*%
D10*
%TO.C,D23*%
X220800000Y-82500000D03*
D11*
X222500000Y-82500000D03*
D12*
X220800000Y-81600000D03*
X220800000Y-82200000D03*
X220800000Y-82800000D03*
X220800000Y-83400000D03*
X223000000Y-81700000D03*
X222050000Y-81700000D03*
X222500000Y-82100000D03*
X222050000Y-82500000D03*
X223000000Y-82500000D03*
X222500000Y-82950000D03*
X222050000Y-83400000D03*
X222050000Y-83400000D03*
X223000000Y-83400000D03*
D10*
X220800000Y-82500000D03*
D11*
X222500000Y-82500000D03*
%TD*%
D10*
%TO.C,D24*%
X220800000Y-107500000D03*
D11*
X222500000Y-107500000D03*
D12*
X220800000Y-106600000D03*
X220800000Y-107200000D03*
X220800000Y-107800000D03*
X220800000Y-108400000D03*
X223000000Y-106700000D03*
X222050000Y-106700000D03*
X222500000Y-107100000D03*
X222050000Y-107500000D03*
X223000000Y-107500000D03*
X222500000Y-107950000D03*
X222050000Y-108400000D03*
X222050000Y-108400000D03*
X223000000Y-108400000D03*
D10*
X220800000Y-107500000D03*
D11*
X222500000Y-107500000D03*
%TD*%
D10*
%TO.C,D25*%
X243300000Y-82500000D03*
D11*
X245000000Y-82500000D03*
D12*
X243300000Y-81600000D03*
X243300000Y-82200000D03*
X243300000Y-82800000D03*
X243300000Y-83400000D03*
X245500000Y-81700000D03*
X244550000Y-81700000D03*
X245000000Y-82100000D03*
X244550000Y-82500000D03*
X245500000Y-82500000D03*
X245000000Y-82950000D03*
X244550000Y-83400000D03*
X244550000Y-83400000D03*
X245500000Y-83400000D03*
D10*
X243300000Y-82500000D03*
D11*
X245000000Y-82500000D03*
%TD*%
D10*
%TO.C,D26*%
X243300000Y-107500000D03*
D11*
X245000000Y-107500000D03*
D12*
X243300000Y-106600000D03*
X243300000Y-107200000D03*
X243300000Y-107800000D03*
X243300000Y-108400000D03*
X245500000Y-106700000D03*
X244550000Y-106700000D03*
X245000000Y-107100000D03*
X244550000Y-107500000D03*
X245500000Y-107500000D03*
X245000000Y-107950000D03*
X244550000Y-108400000D03*
X244550000Y-108400000D03*
X245500000Y-108400000D03*
D10*
X243300000Y-107500000D03*
D11*
X245000000Y-107500000D03*
%TD*%
D10*
%TO.C,D27*%
X265800000Y-82500000D03*
D11*
X267500000Y-82500000D03*
D12*
X265800000Y-81600000D03*
X265800000Y-82200000D03*
X265800000Y-82800000D03*
X265800000Y-83400000D03*
X268000000Y-81700000D03*
X267050000Y-81700000D03*
X267500000Y-82100000D03*
X267050000Y-82500000D03*
X268000000Y-82500000D03*
X267500000Y-82950000D03*
X267050000Y-83400000D03*
X267050000Y-83400000D03*
X268000000Y-83400000D03*
D10*
X265800000Y-82500000D03*
D11*
X267500000Y-82500000D03*
%TD*%
D10*
%TO.C,D28*%
X265800000Y-107500000D03*
D11*
X267500000Y-107500000D03*
D12*
X265800000Y-106600000D03*
X265800000Y-107200000D03*
X265800000Y-107800000D03*
X265800000Y-108400000D03*
X268000000Y-106700000D03*
X267050000Y-106700000D03*
X267500000Y-107100000D03*
X267050000Y-107500000D03*
X268000000Y-107500000D03*
X267500000Y-107950000D03*
X267050000Y-108400000D03*
X267050000Y-108400000D03*
X268000000Y-108400000D03*
D10*
X265800000Y-107500000D03*
D11*
X267500000Y-107500000D03*
%TD*%
D10*
%TO.C,D29*%
X288300000Y-82500000D03*
D11*
X290000000Y-82500000D03*
D12*
X288300000Y-81600000D03*
X288300000Y-82200000D03*
X288300000Y-82800000D03*
X288300000Y-83400000D03*
X290500000Y-81700000D03*
X289550000Y-81700000D03*
X290000000Y-82100000D03*
X289550000Y-82500000D03*
X290500000Y-82500000D03*
X290000000Y-82950000D03*
X289550000Y-83400000D03*
X289550000Y-83400000D03*
X290500000Y-83400000D03*
D10*
X288300000Y-82500000D03*
D11*
X290000000Y-82500000D03*
%TD*%
D10*
%TO.C,D30*%
X288300000Y-107500000D03*
D11*
X290000000Y-107500000D03*
D12*
X288300000Y-106600000D03*
X288300000Y-107200000D03*
X288300000Y-107800000D03*
X288300000Y-108400000D03*
X290500000Y-106700000D03*
X289550000Y-106700000D03*
X290000000Y-107100000D03*
X289550000Y-107500000D03*
X290500000Y-107500000D03*
X290000000Y-107950000D03*
X289550000Y-108400000D03*
X289550000Y-108400000D03*
X290500000Y-108400000D03*
D10*
X288300000Y-107500000D03*
D11*
X290000000Y-107500000D03*
%TD*%
D10*
%TO.C,D31*%
X310800000Y-82500000D03*
D11*
X312500000Y-82500000D03*
D12*
X310800000Y-81600000D03*
X310800000Y-82200000D03*
X310800000Y-82800000D03*
X310800000Y-83400000D03*
X313000000Y-81700000D03*
X312050000Y-81700000D03*
X312500000Y-82100000D03*
X312050000Y-82500000D03*
X313000000Y-82500000D03*
X312500000Y-82950000D03*
X312050000Y-83400000D03*
X312050000Y-83400000D03*
X313000000Y-83400000D03*
D10*
X310800000Y-82500000D03*
D11*
X312500000Y-82500000D03*
%TD*%
D10*
%TO.C,D32*%
X310800000Y-107500000D03*
D11*
X312500000Y-107500000D03*
D12*
X310800000Y-106600000D03*
X310800000Y-107200000D03*
X310800000Y-107800000D03*
X310800000Y-108400000D03*
X313000000Y-106700000D03*
X312050000Y-106700000D03*
X312500000Y-107100000D03*
X312050000Y-107500000D03*
X313000000Y-107500000D03*
X312500000Y-107950000D03*
X312050000Y-108400000D03*
X312050000Y-108400000D03*
X313000000Y-108400000D03*
D10*
X310800000Y-107500000D03*
D11*
X312500000Y-107500000D03*
%TD*%
D10*
%TO.C,D33*%
X333300000Y-82500000D03*
D11*
X335000000Y-82500000D03*
D12*
X333300000Y-81600000D03*
X333300000Y-82200000D03*
X333300000Y-82800000D03*
X333300000Y-83400000D03*
X335500000Y-81700000D03*
X334550000Y-81700000D03*
X335000000Y-82100000D03*
X334550000Y-82500000D03*
X335500000Y-82500000D03*
X335000000Y-82950000D03*
X334550000Y-83400000D03*
X334550000Y-83400000D03*
X335500000Y-83400000D03*
D10*
X333300000Y-82500000D03*
D11*
X335000000Y-82500000D03*
%TD*%
D10*
%TO.C,D34*%
X333300000Y-107500000D03*
D11*
X335000000Y-107500000D03*
D12*
X333300000Y-106600000D03*
X333300000Y-107200000D03*
X333300000Y-107800000D03*
X333300000Y-108400000D03*
X335500000Y-106700000D03*
X334550000Y-106700000D03*
X335000000Y-107100000D03*
X334550000Y-107500000D03*
X335500000Y-107500000D03*
X335000000Y-107950000D03*
X334550000Y-108400000D03*
X334550000Y-108400000D03*
X335500000Y-108400000D03*
D10*
X333300000Y-107500000D03*
D11*
X335000000Y-107500000D03*
%TD*%
D13*
%TO.C,J1*%
X-32500000Y-103780000D03*
X-32500000Y-101240000D03*
X-32500000Y-98700000D03*
X-32500000Y-96160000D03*
X-32500000Y-93620000D03*
X-32500000Y-91080000D03*
X-32500000Y-88540000D03*
D14*
X-32500000Y-86000000D03*
%TD*%
D13*
%TO.C,J2*%
X341000000Y-103780000D03*
X341000000Y-101240000D03*
X341000000Y-98700000D03*
X341000000Y-96160000D03*
X341000000Y-93620000D03*
X341000000Y-91080000D03*
X341000000Y-88540000D03*
D14*
X341000000Y-86000000D03*
%TD*%
M02*
