M48
; DRILL file {KiCad 5.1.7-a382d34a8~87~ubuntu20.04.1} date Sat Nov 14 14:33:24 2020
; FORMAT={-:-/ absolute / inch / decimal}
; #@! TF.CreationDate,2020-11-14T14:33:24-08:00
; #@! TF.GenerationSoftware,Kicad,Pcbnew,5.1.7-a382d34a8~87~ubuntu20.04.1
; #@! TF.FileFunction,Plated,1,2,PTH
FMAT,2
INCH
T1C0.0079
T2C0.0394
%
G90
G05
T1
X6.9213Y-4.1969
X6.9213Y-4.2205
X6.9213Y-4.2441
X6.9213Y-4.2677
X6.9705Y-4.2008
X6.9705Y-4.2323
X6.9705Y-4.2677
X6.9705Y-4.2677
X6.9882Y-4.2165
X6.9882Y-4.25
X7.0079Y-4.2008
X7.0079Y-4.2323
X7.0079Y-4.2677
X6.9213Y-3.2126
X6.9213Y-3.2362
X6.9213Y-3.2598
X6.9213Y-3.2835
X6.9705Y-3.2165
X6.9705Y-3.248
X6.9705Y-3.2835
X6.9705Y-3.2835
X6.9882Y-3.2323
X6.9882Y-3.2657
X7.0079Y-3.2165
X7.0079Y-3.248
X7.0079Y-3.2835
X12.2362Y-3.2126
X12.2362Y-3.2362
X12.2362Y-3.2598
X12.2362Y-3.2835
X12.2854Y-3.2165
X12.2854Y-3.248
X12.2854Y-3.2835
X12.2854Y-3.2835
X12.3031Y-3.2323
X12.3031Y-3.2657
X12.3228Y-3.2165
X12.3228Y-3.248
X12.3228Y-3.2835
X4.2638Y-3.2126
X4.2638Y-3.2362
X4.2638Y-3.2598
X4.2638Y-3.2835
X4.313Y-3.2165
X4.313Y-3.248
X4.313Y-3.2835
X4.313Y-3.2835
X4.3307Y-3.2323
X4.3307Y-3.2657
X4.3504Y-3.2165
X4.3504Y-3.248
X4.3504Y-3.2835
X2.4921Y-3.2126
X2.4921Y-3.2362
X2.4921Y-3.2598
X2.4921Y-3.2835
X2.5413Y-3.2165
X2.5413Y-3.248
X2.5413Y-3.2835
X2.5413Y-3.2835
X2.5591Y-3.2323
X2.5591Y-3.2657
X2.5787Y-3.2165
X2.5787Y-3.248
X2.5787Y-3.2835
X0.7205Y-4.1969
X0.7205Y-4.2205
X0.7205Y-4.2441
X0.7205Y-4.2677
X0.7697Y-4.2008
X0.7697Y-4.2323
X0.7697Y-4.2677
X0.7697Y-4.2677
X0.7874Y-4.2165
X0.7874Y-4.25
X0.8071Y-4.2008
X0.8071Y-4.2323
X0.8071Y-4.2677
X4.2638Y-4.1969
X4.2638Y-4.2205
X4.2638Y-4.2441
X4.2638Y-4.2677
X4.313Y-4.2008
X4.313Y-4.2323
X4.313Y-4.2677
X4.313Y-4.2677
X4.3307Y-4.2165
X4.3307Y-4.25
X4.3504Y-4.2008
X4.3504Y-4.2323
X4.3504Y-4.2677
X2.4921Y-4.1969
X2.4921Y-4.2205
X2.4921Y-4.2441
X2.4921Y-4.2677
X2.5413Y-4.2008
X2.5413Y-4.2323
X2.5413Y-4.2677
X2.5413Y-4.2677
X2.5591Y-4.2165
X2.5591Y-4.25
X2.5787Y-4.2008
X2.5787Y-4.2323
X2.5787Y-4.2677
X9.5787Y-3.2126
X9.5787Y-3.2362
X9.5787Y-3.2598
X9.5787Y-3.2835
X9.628Y-3.2165
X9.628Y-3.248
X9.628Y-3.2835
X9.628Y-3.2835
X9.6457Y-3.2323
X9.6457Y-3.2657
X9.6654Y-3.2165
X9.6654Y-3.248
X9.6654Y-3.2835
X8.6929Y-4.1969
X8.6929Y-4.2205
X8.6929Y-4.2441
X8.6929Y-4.2677
X8.7421Y-4.2008
X8.7421Y-4.2323
X8.7421Y-4.2677
X8.7421Y-4.2677
X8.7598Y-4.2165
X8.7598Y-4.25
X8.7795Y-4.2008
X8.7795Y-4.2323
X8.7795Y-4.2677
X7.8071Y-4.1969
X7.8071Y-4.2205
X7.8071Y-4.2441
X7.8071Y-4.2677
X7.8563Y-4.2008
X7.8563Y-4.2323
X7.8563Y-4.2677
X7.8563Y-4.2677
X7.874Y-4.2165
X7.874Y-4.25
X7.8937Y-4.2008
X7.8937Y-4.2323
X7.8937Y-4.2677
X1.6063Y-3.2126
X1.6063Y-3.2362
X1.6063Y-3.2598
X1.6063Y-3.2835
X1.6555Y-3.2165
X1.6555Y-3.248
X1.6555Y-3.2835
X1.6555Y-3.2835
X1.6732Y-3.2323
X1.6732Y-3.2657
X1.6929Y-3.2165
X1.6929Y-3.248
X1.6929Y-3.2835
X3.378Y-4.1969
X3.378Y-4.2205
X3.378Y-4.2441
X3.378Y-4.2677
X3.4272Y-4.2008
X3.4272Y-4.2323
X3.4272Y-4.2677
X3.4272Y-4.2677
X3.4449Y-4.2165
X3.4449Y-4.25
X3.4646Y-4.2008
X3.4646Y-4.2323
X3.4646Y-4.2677
X11.3504Y-4.1969
X11.3504Y-4.2205
X11.3504Y-4.2441
X11.3504Y-4.2677
X11.3996Y-4.2008
X11.3996Y-4.2323
X11.3996Y-4.2677
X11.3996Y-4.2677
X11.4173Y-4.2165
X11.4173Y-4.25
X11.437Y-4.2008
X11.437Y-4.2323
X11.437Y-4.2677
X8.6929Y-3.2126
X8.6929Y-3.2362
X8.6929Y-3.2598
X8.6929Y-3.2835
X8.7421Y-3.2165
X8.7421Y-3.248
X8.7421Y-3.2835
X8.7421Y-3.2835
X8.7598Y-3.2323
X8.7598Y-3.2657
X8.7795Y-3.2165
X8.7795Y-3.248
X8.7795Y-3.2835
X-0.1654Y-3.2126
X-0.1654Y-3.2362
X-0.1654Y-3.2598
X-0.1654Y-3.2835
X-0.1161Y-3.2165
X-0.1161Y-3.248
X-0.1161Y-3.2835
X-0.1161Y-3.2835
X-0.0984Y-3.2323
X-0.0984Y-3.2657
X-0.0787Y-3.2165
X-0.0787Y-3.248
X-0.0787Y-3.2835
X6.0354Y-4.1969
X6.0354Y-4.2205
X6.0354Y-4.2441
X6.0354Y-4.2677
X6.0846Y-4.2008
X6.0846Y-4.2323
X6.0846Y-4.2677
X6.0846Y-4.2677
X6.1024Y-4.2165
X6.1024Y-4.25
X6.122Y-4.2008
X6.122Y-4.2323
X6.122Y-4.2677
X-1.0512Y-3.2126
X-1.0512Y-3.2362
X-1.0512Y-3.2598
X-1.0512Y-3.2835
X-1.002Y-3.2165
X-1.002Y-3.248
X-1.002Y-3.2835
X-1.002Y-3.2835
X-0.9843Y-3.2323
X-0.9843Y-3.2657
X-0.9646Y-3.2165
X-0.9646Y-3.248
X-0.9646Y-3.2835
X10.4646Y-3.2126
X10.4646Y-3.2362
X10.4646Y-3.2598
X10.4646Y-3.2835
X10.5138Y-3.2165
X10.5138Y-3.248
X10.5138Y-3.2835
X10.5138Y-3.2835
X10.5315Y-3.2323
X10.5315Y-3.2657
X10.5512Y-3.2165
X10.5512Y-3.248
X10.5512Y-3.2835
X-0.1654Y-4.1969
X-0.1654Y-4.2205
X-0.1654Y-4.2441
X-0.1654Y-4.2677
X-0.1161Y-4.2008
X-0.1161Y-4.2323
X-0.1161Y-4.2677
X-0.1161Y-4.2677
X-0.0984Y-4.2165
X-0.0984Y-4.25
X-0.0787Y-4.2008
X-0.0787Y-4.2323
X-0.0787Y-4.2677
X11.3504Y-3.2126
X11.3504Y-3.2362
X11.3504Y-3.2598
X11.3504Y-3.2835
X11.3996Y-3.2165
X11.3996Y-3.248
X11.3996Y-3.2835
X11.3996Y-3.2835
X11.4173Y-3.2323
X11.4173Y-3.2657
X11.437Y-3.2165
X11.437Y-3.248
X11.437Y-3.2835
X5.1496Y-3.2126
X5.1496Y-3.2362
X5.1496Y-3.2598
X5.1496Y-3.2835
X5.1988Y-3.2165
X5.1988Y-3.248
X5.1988Y-3.2835
X5.1988Y-3.2835
X5.2165Y-3.2323
X5.2165Y-3.2657
X5.2362Y-3.2165
X5.2362Y-3.248
X5.2362Y-3.2835
X0.7205Y-3.2126
X0.7205Y-3.2362
X0.7205Y-3.2598
X0.7205Y-3.2835
X0.7697Y-3.2165
X0.7697Y-3.248
X0.7697Y-3.2835
X0.7697Y-3.2835
X0.7874Y-3.2323
X0.7874Y-3.2657
X0.8071Y-3.2165
X0.8071Y-3.248
X0.8071Y-3.2835
X6.0354Y-3.2126
X6.0354Y-3.2362
X6.0354Y-3.2598
X6.0354Y-3.2835
X6.0846Y-3.2165
X6.0846Y-3.248
X6.0846Y-3.2835
X6.0846Y-3.2835
X6.1024Y-3.2323
X6.1024Y-3.2657
X6.122Y-3.2165
X6.122Y-3.248
X6.122Y-3.2835
X10.4646Y-4.1969
X10.4646Y-4.2205
X10.4646Y-4.2441
X10.4646Y-4.2677
X10.5138Y-4.2008
X10.5138Y-4.2323
X10.5138Y-4.2677
X10.5138Y-4.2677
X10.5315Y-4.2165
X10.5315Y-4.25
X10.5512Y-4.2008
X10.5512Y-4.2323
X10.5512Y-4.2677
X13.122Y-3.2126
X13.122Y-3.2362
X13.122Y-3.2598
X13.122Y-3.2835
X13.1713Y-3.2165
X13.1713Y-3.248
X13.1713Y-3.2835
X13.1713Y-3.2835
X13.189Y-3.2323
X13.189Y-3.2657
X13.2087Y-3.2165
X13.2087Y-3.248
X13.2087Y-3.2835
X9.5787Y-4.1969
X9.5787Y-4.2205
X9.5787Y-4.2441
X9.5787Y-4.2677
X9.628Y-4.2008
X9.628Y-4.2323
X9.628Y-4.2677
X9.628Y-4.2677
X9.6457Y-4.2165
X9.6457Y-4.25
X9.6654Y-4.2008
X9.6654Y-4.2323
X9.6654Y-4.2677
X1.6063Y-4.1969
X1.6063Y-4.2205
X1.6063Y-4.2441
X1.6063Y-4.2677
X1.6555Y-4.2008
X1.6555Y-4.2323
X1.6555Y-4.2677
X1.6555Y-4.2677
X1.6732Y-4.2165
X1.6732Y-4.25
X1.6929Y-4.2008
X1.6929Y-4.2323
X1.6929Y-4.2677
X3.378Y-3.2126
X3.378Y-3.2362
X3.378Y-3.2598
X3.378Y-3.2835
X3.4272Y-3.2165
X3.4272Y-3.248
X3.4272Y-3.2835
X3.4272Y-3.2835
X3.4449Y-3.2323
X3.4449Y-3.2657
X3.4646Y-3.2165
X3.4646Y-3.248
X3.4646Y-3.2835
X7.8071Y-3.2126
X7.8071Y-3.2362
X7.8071Y-3.2598
X7.8071Y-3.2835
X7.8563Y-3.2165
X7.8563Y-3.248
X7.8563Y-3.2835
X7.8563Y-3.2835
X7.874Y-3.2323
X7.874Y-3.2657
X7.8937Y-3.2165
X7.8937Y-3.248
X7.8937Y-3.2835
X5.1496Y-4.1969
X5.1496Y-4.2205
X5.1496Y-4.2441
X5.1496Y-4.2677
X5.1988Y-4.2008
X5.1988Y-4.2323
X5.1988Y-4.2677
X5.1988Y-4.2677
X5.2165Y-4.2165
X5.2165Y-4.25
X5.2362Y-4.2008
X5.2362Y-4.2323
X5.2362Y-4.2677
X-1.0512Y-4.1969
X-1.0512Y-4.2205
X-1.0512Y-4.2441
X-1.0512Y-4.2677
X-1.002Y-4.2008
X-1.002Y-4.2323
X-1.002Y-4.2677
X-1.002Y-4.2677
X-0.9843Y-4.2165
X-0.9843Y-4.25
X-0.9646Y-4.2008
X-0.9646Y-4.2323
X-0.9646Y-4.2677
X12.2362Y-4.1969
X12.2362Y-4.2205
X12.2362Y-4.2441
X12.2362Y-4.2677
X12.2854Y-4.2008
X12.2854Y-4.2323
X12.2854Y-4.2677
X12.2854Y-4.2677
X12.3031Y-4.2165
X12.3031Y-4.25
X12.3228Y-4.2008
X12.3228Y-4.2323
X12.3228Y-4.2677
X13.122Y-4.1969
X13.122Y-4.2205
X13.122Y-4.2441
X13.122Y-4.2677
X13.1713Y-4.2008
X13.1713Y-4.2323
X13.1713Y-4.2677
X13.1713Y-4.2677
X13.189Y-4.2165
X13.189Y-4.25
X13.2087Y-4.2008
X13.2087Y-4.2323
X13.2087Y-4.2677
T2
X13.4252Y-3.3858
X13.4252Y-3.4858
X13.4252Y-3.5858
X13.4252Y-3.6858
X13.4252Y-3.7858
X13.4252Y-3.8858
X13.4252Y-3.9858
X13.4252Y-4.0858
X-1.2795Y-3.3858
X-1.2795Y-3.4858
X-1.2795Y-3.5858
X-1.2795Y-3.6858
X-1.2795Y-3.7858
X-1.2795Y-3.8858
X-1.2795Y-3.9858
X-1.2795Y-4.0858
T0
M30
